<mxfile host="app.diagrams.net" modified="2024-02-21T03:46:12.628Z" agent="Mozilla/5.0 (Windows NT 10.0; Win64; x64) AppleWebKit/537.36 (KHTML, like Gecko) Chrome/121.0.0.0 Safari/537.36" etag="0HXrsAKZAAj01WM7ZfZY" version="23.1.1" type="github">
  <diagram name="第 1 页" id="pKNQLKkDkJxgXksjzsEI">
    <mxGraphModel dx="1434" dy="746" grid="1" gridSize="10" guides="1" tooltips="1" connect="1" arrows="1" fold="1" page="1" pageScale="1" pageWidth="827" pageHeight="1169" math="0" shadow="0">
      <root>
        <mxCell id="0" />
        <mxCell id="1" parent="0" />
        <mxCell id="SjsSmUahBylaNnkd-Bef-1" value="" style="rounded=0;whiteSpace=wrap;html=1;" vertex="1" parent="1">
          <mxGeometry x="24" y="40" width="660" height="300" as="geometry" />
        </mxCell>
        <mxCell id="SjsSmUahBylaNnkd-Bef-2" value="租户" style="text;html=1;strokeColor=none;fillColor=none;align=center;verticalAlign=middle;whiteSpace=wrap;rounded=0;" vertex="1" parent="1">
          <mxGeometry x="24" y="40" width="60" height="30" as="geometry" />
        </mxCell>
        <mxCell id="SjsSmUahBylaNnkd-Bef-5" value="" style="rounded=0;whiteSpace=wrap;html=1;" vertex="1" parent="1">
          <mxGeometry x="40" y="80" width="630" height="250" as="geometry" />
        </mxCell>
        <mxCell id="SjsSmUahBylaNnkd-Bef-19" style="rounded=0;orthogonalLoop=1;jettySize=auto;html=1;" edge="1" parent="1" source="SjsSmUahBylaNnkd-Bef-3" target="SjsSmUahBylaNnkd-Bef-8">
          <mxGeometry relative="1" as="geometry" />
        </mxCell>
        <mxCell id="SjsSmUahBylaNnkd-Bef-3" value="账号" style="rounded=0;whiteSpace=wrap;html=1;" vertex="1" parent="1">
          <mxGeometry x="70" y="120" width="120" height="60" as="geometry" />
        </mxCell>
        <mxCell id="SjsSmUahBylaNnkd-Bef-20" style="rounded=0;orthogonalLoop=1;jettySize=auto;html=1;" edge="1" parent="1" source="SjsSmUahBylaNnkd-Bef-4" target="SjsSmUahBylaNnkd-Bef-8">
          <mxGeometry relative="1" as="geometry" />
        </mxCell>
        <mxCell id="SjsSmUahBylaNnkd-Bef-21" style="edgeStyle=orthogonalEdgeStyle;rounded=0;orthogonalLoop=1;jettySize=auto;html=1;" edge="1" parent="1" source="SjsSmUahBylaNnkd-Bef-4" target="SjsSmUahBylaNnkd-Bef-9">
          <mxGeometry relative="1" as="geometry" />
        </mxCell>
        <mxCell id="SjsSmUahBylaNnkd-Bef-4" value="角色" style="rounded=0;whiteSpace=wrap;html=1;" vertex="1" parent="1">
          <mxGeometry x="210" y="120" width="120" height="60" as="geometry" />
        </mxCell>
        <mxCell id="SjsSmUahBylaNnkd-Bef-22" style="edgeStyle=orthogonalEdgeStyle;rounded=0;orthogonalLoop=1;jettySize=auto;html=1;entryX=0.5;entryY=0;entryDx=0;entryDy=0;" edge="1" parent="1" source="SjsSmUahBylaNnkd-Bef-6" target="SjsSmUahBylaNnkd-Bef-9">
          <mxGeometry relative="1" as="geometry" />
        </mxCell>
        <mxCell id="SjsSmUahBylaNnkd-Bef-23" style="edgeStyle=orthogonalEdgeStyle;rounded=0;orthogonalLoop=1;jettySize=auto;html=1;exitX=1;exitY=0.5;exitDx=0;exitDy=0;" edge="1" parent="1" source="SjsSmUahBylaNnkd-Bef-6" target="SjsSmUahBylaNnkd-Bef-10">
          <mxGeometry relative="1" as="geometry" />
        </mxCell>
        <mxCell id="SjsSmUahBylaNnkd-Bef-6" value="权限" style="rounded=0;whiteSpace=wrap;html=1;" vertex="1" parent="1">
          <mxGeometry x="353.5" y="120" width="120" height="60" as="geometry" />
        </mxCell>
        <mxCell id="SjsSmUahBylaNnkd-Bef-8" value="账号角色表" style="rounded=0;whiteSpace=wrap;html=1;" vertex="1" parent="1">
          <mxGeometry x="100" y="240" width="120" height="60" as="geometry" />
        </mxCell>
        <mxCell id="SjsSmUahBylaNnkd-Bef-9" value="角色权限表" style="rounded=0;whiteSpace=wrap;html=1;" vertex="1" parent="1">
          <mxGeometry x="280" y="250" width="120" height="60" as="geometry" />
        </mxCell>
        <mxCell id="SjsSmUahBylaNnkd-Bef-10" value="菜单" style="rounded=0;whiteSpace=wrap;html=1;" vertex="1" parent="1">
          <mxGeometry x="540" y="120" width="120" height="60" as="geometry" />
        </mxCell>
        <mxCell id="SjsSmUahBylaNnkd-Bef-12" style="edgeStyle=orthogonalEdgeStyle;rounded=0;orthogonalLoop=1;jettySize=auto;html=1;exitX=0.5;exitY=1;exitDx=0;exitDy=0;" edge="1" parent="1">
          <mxGeometry relative="1" as="geometry">
            <mxPoint x="510" y="260" as="sourcePoint" />
            <mxPoint x="510" y="260" as="targetPoint" />
          </mxGeometry>
        </mxCell>
        <mxCell id="SjsSmUahBylaNnkd-Bef-25" value="部门" style="text;html=1;strokeColor=none;fillColor=none;align=center;verticalAlign=middle;whiteSpace=wrap;rounded=0;" vertex="1" parent="1">
          <mxGeometry x="30" y="80" width="60" height="30" as="geometry" />
        </mxCell>
      </root>
    </mxGraphModel>
  </diagram>
</mxfile>
